/vscmnt/brussel_pixiu_data/_data_brussel/112/vsc11236/PredSimResults/SUBJ09opt3D/weighted-expIG/worker_03.mot
version=1
nRows=11
nColumns=50
inDegrees=yes
endheader
                time	         pelvis_tilt	         pelvis_list	     pelvis_rotation	           pelvis_tx	           pelvis_ty	           pelvis_tz	       hip_flexion_r	     hip_adduction_r	      hip_rotation_r	        knee_angle_r	       ankle_angle_r	         mtp_angle_r	       hip_flexion_l	     hip_adduction_l	      hip_rotation_l	        knee_angle_l	       ankle_angle_l	         mtp_angle_l	    lumbar_extension	      lumbar_bending	     lumbar_rotation	 ercspn_r/activation	 intobl_r/activation	 extobl_r/activation	    abd_r/activation	    add_r/activation	hamstrings_r/activation	bifemsh_r/activation	glut_max_r/activation	iliopsoas_r/activation	rect_fem_r/activation	  vasti_r/activation	gastroc_r/activation	 soleus_r/activation	tib_ant_r/activation	 ercspn_l/activation	 intobl_l/activation	 extobl_l/activation	    abd_l/activation	    add_l/activation	hamstrings_l/activation	bifemsh_l/activation	glut_max_l/activation	iliopsoas_l/activation	rect_fem_l/activation	  vasti_l/activation	gastroc_l/activation	 soleus_l/activation	tib_ant_l/activation	
          1.31535710	         -4.30535395	         -0.91740861	          7.47562644	          1.52581424	          0.99197020	         -0.00165402	         28.51310556	         -0.92278073	         -7.54863724	         -4.46537227	          3.91285341	          0.22252027	        -12.30390017	         -1.96337728	         -5.38129748	        -10.97166541	          4.68508355	         36.63412552	        -13.52317607	         -1.80081594	         -8.20822955	          0.03583505	          0.17975234	          0.04039001	          0.00999999	          0.23672980	          0.06170681	          0.08849663	          0.01917200	          0.13866958	          0.01953991	          0.01125818	          0.01812393	          0.01167236	          0.31195769	          0.00999999	          0.00999999	          0.00999999	          0.04000800	          0.00999999	          0.01625060	          0.29217810	          0.01486511	          0.03379663	          0.00999999	          0.00999999	          0.33687232	          0.24972574	          0.01418529	
          1.32851067	         -4.37837473	         -1.00134319	          7.45721902	          1.54573408	          0.98967671	         -0.00083974	         28.46245185	         -0.69083794	         -8.01317132	         -5.88238226	          3.40877422	          0.24002226	        -12.90340523	         -2.26506349	         -5.85122954	        -11.75151197	          3.62229865	         38.32365420	        -12.98645940	         -1.35687333	         -8.35824074	          0.02939164	          0.14743149	          0.03312758	          0.00999999	          0.29276027	          0.05061146	          0.07258426	          0.09585371	          0.11373573	          0.01602648	          0.00999999	          0.01486511	          0.01486511	          0.32917288	          0.03466027	          0.00999999	          0.00999999	          0.03281425	          0.01219225	          0.02881896	          0.24564226	          0.01219225	          0.08167481	          0.00999999	          0.00999999	          0.30870373	          0.22865175	          0.01163467	
          1.34166425	         -4.42419614	         -1.12903247	          7.41910326	          1.56624321	          0.98746130	         -0.00003064	         28.24110301	         -0.48488371	         -8.23589085	         -7.46146365	          2.97986825	          0.20727096	        -13.37153449	         -2.63805853	         -6.33473815	        -12.86175625	          2.45495574	         40.00214556	        -12.39913250	         -0.85276477	         -8.47399295	          0.02410680	          0.12092219	          0.02717099	          0.07946967	          0.24011974	          0.06227349	          0.05953306	          0.11780969	          0.09328518	          0.01314480	          0.00999999	          0.01219225	          0.01219225	          0.37199963	          0.02842809	          0.00999999	          0.00999999	          0.02691400	          0.00999999	          0.02862381	          0.20147391	          0.00999999	          0.08600431	          0.00999999	          0.00999999	          0.27462530	          0.20328703	          0.00999999	
          1.35481782	         -4.45002487	         -1.27727230	          7.35051478	          1.58694441	          0.98557946	          0.00087683	         27.90682083	         -0.25743857	         -8.47806548	         -8.86731662	          2.35722924	          0.19588383	        -13.60581352	         -3.06688270	         -6.83432913	        -14.42181030	          1.14166245	         41.59590730	        -11.80738278	         -0.32660058	         -8.54846068	          0.02345779	          0.09917945	          0.02228544	          0.13141746	          0.22981521	          0.06200877	          0.04882856	          0.14625220	          0.07651179	          0.01078126	          0.00999999	          0.00999999	          0.00999999	          0.41803781	          0.02331650	          0.00999999	          0.00999999	          0.02207466	          0.00999999	          0.03710776	          0.16524736	          0.00999999	          0.12379618	          0.00999999	          0.00999999	          0.22524558	          0.16673447	          0.00999999	
          1.36797139	         -4.45908257	         -1.43724188	          7.25271103	          1.60741699	          0.98425618	          0.00189515	         27.61071051	         -0.02080390	         -8.74534043	        -10.35213834	          1.79692610	          0.16144514	        -13.50708960	         -3.55214536	         -7.34568776	        -16.55775606	         -0.28576747	         42.89174892	        -11.25992178	          0.21238296	         -8.58054685	          0.02778482	          0.08134623	          0.01827835	          0.18707325	          0.23169916	          0.06321365	          0.04004881	          0.15929128	          0.06275438	          0.00999999	          0.12178163	          0.00999999	          0.00999999	          0.44279261	          0.07644554	          0.00999999	          0.00999999	          0.01810546	          0.04823549	          0.04874779	          0.13553462	          0.00999999	          0.11789604	          0.00999999	          0.00999999	          0.18474470	          0.13675433	          0.00999999	
          1.38112496	         -4.45525556	         -1.61000824	          7.13377363	          1.62735890	          0.98372794	          0.00300274	         27.37140293	          0.22944740	         -8.97977783	        -11.96501770	          1.61248400	          0.11688567	        -13.00986872	         -4.10292204	         -7.88397794	        -19.32786357	         -1.80481108	         43.58831747	        -10.78552905	          0.76593046	         -8.57418091	          0.03015022	          0.06671956	          0.01499176	          0.20674406	          0.23392450	          0.05904892	          0.03284773	          0.19476116	          0.05147067	          0.00999999	          0.21794803	          0.00999999	          0.00999999	          0.43881627	          0.09338023	          0.00999999	          0.00999999	          0.01484996	          0.14172620	          0.04943447	          0.11116446	          0.00999999	          0.10734185	          0.00999999	          0.00999999	          0.15152619	          0.11216486	          0.00999999	
          1.39427853	         -4.44200772	         -1.77320839	          6.99084421	          1.64660427	          0.98414799	          0.00415895	         27.12912679	          0.48118458	         -9.16533841	        -13.59406279	          1.88351714	          0.08647022	        -12.08874799	         -4.70485514	         -8.48567061	        -22.76069624	         -3.29971784	         43.20298222	        -10.40064254	          1.31081473	         -8.52593515	          0.02678573	          0.05472287	          0.01229613	          0.20722971	          0.25190663	          0.06238489	          0.02694146	          0.19677459	          0.04221585	          0.00999999	          0.26922086	          0.00999999	          0.00999999	          0.38832913	          0.09997036	          0.00999999	          0.00999999	          0.01217983	          0.20453855	          0.04959329	          0.09117624	          0.00999999	          0.08804097	          0.00999999	          0.00999999	          0.12428062	          0.09199676	          0.00999999	
          1.40743210	         -4.42139067	         -1.89810346	          6.82090775	          1.66515386	          0.98549102	          0.00532004	         26.79345796	          0.71941950	         -9.28781698	        -15.06011636	          2.51433841	          0.10012436	        -10.78047100	         -5.33657711	         -9.13560051	        -26.74228838	         -4.90418629	         41.74346117	        -10.10348097	          1.81646629	         -8.43318692	          0.02196945	          0.04488328	          0.01008519	          0.20022579	          0.26030432	          0.06355026	          0.02209718	          0.19571736	          0.03462512	          0.00999999	          0.29885867	          0.00999999	          0.00999999	          0.32697236	          0.08625757	          0.00999999	          0.00999999	          0.00999999	          0.26662764	          0.04894019	          0.07478206	          0.00999999	          0.07221053	          0.00999999	          0.00999999	          0.10193402	          0.07545504	          0.02402516	
          1.42058567	         -4.39396490	         -1.96152864	          6.62082464	          1.68305239	          0.98760997	          0.00644040	         26.28496270	          0.93354743	         -9.32479335	        -16.18382762	          3.23624544	          0.21191277	         -9.15475510	         -5.97219050	         -9.78138237	        -31.11939228	         -6.56291250	         39.05155030	         -9.88806950	          2.25930543	         -8.29007364	          0.01801918	          0.03681292	          0.00999999	          0.20469257	          0.22001713	          0.06506836	          0.01812394	          0.16788911	          0.02839926	          0.00999999	          0.28885892	          0.00999999	          0.00999999	          0.27304068	          0.08472227	          0.03791072	          0.00999999	          0.00999999	          0.22629224	          0.04014037	          0.06133567	          0.00999999	          0.05922652	          0.00999999	          0.00999999	          0.08360550	          0.06188765	          0.08044602	
          1.43373924	         -4.35885702	         -1.95801876	          6.39539174	          1.70032760	          0.99025915	          0.00749330	         25.59717013	          1.11554141	         -9.27410806	        -16.93872774	          3.91515597	          0.42106646	         -7.29548693	         -6.58727049	        -10.32260233	        -35.75134917	         -7.95419561	         34.88404078	         -9.75010464	          2.63002571	         -8.08964134	          0.01477919	          0.03019368	          0.00999999	          0.18359307	          0.18863190	          0.06775997	          0.01486511	          0.14652812	          0.02329285	          0.00999999	          0.28496067	          0.00999999	          0.00999999	          0.22875417	          0.11177306	          0.06921610	          0.04553521	          0.00999999	          0.18560316	          0.03292283	          0.05030705	          0.00999999	          0.04857714	          0.00999999	          0.00999999	          0.06857259	          0.05075978	          0.19046964	
          1.44689281	         -4.31485504	         -1.90051046	          6.14099945	          1.71697554	          0.99320368	          0.00844597	         24.76669172	          1.26778692	         -9.15506480	        -17.38913527	          4.54671872	          0.75095725	         -5.30090418	         -7.10879108	        -10.64023348	        -40.41650931	         -8.65141078	         29.69764538	         -9.68956007	          2.93902806	         -7.82006226	          0.01212178	          0.02476462	          0.00999999	          0.15633637	          0.18013732	          0.06085411	          0.01219225	          0.12018125	          0.01910462	          0.00999999	          0.26373796	          0.00999999	          0.00999999	          0.19153260	          0.11796140	          0.07509455	          0.08604088	          0.00999999	          0.15223030	          0.02700305	          0.04980296	          0.00999999	          0.03984260	          0.00999999	          0.00999999	          0.05624272	          0.04163278	          0.21308594	
